<?xml version="1.0" standalone="no"?>
<!DOCTYPE svg PUBLIC "-//W3C//DTD SVG 20010904//EN"
 "http://www.w3.org/TR/2001/REC-SVG-20010904/DTD/svg10.dtd">
<svg version="1.0" xmlns="http://www.w3.org/2000/svg"
 width="717.000000pt" height="717.000000pt" viewBox="0 0 717.000000 717.000000"
 preserveAspectRatio="xMidYMid meet">
<metadata>
Created by potrace 1.14, written by Peter Selinger 2001-2017
</metadata>
<g transform="translate(0.000000,717.000000) scale(0.100000,-0.100000)"
fill="#000000" stroke="none">
<path d="M3154 6353 c4 -38 9 -86 11 -108 2 -22 6 -67 9 -100 8 -84 16 -173
21 -220 3 -22 7 -71 10 -110 4 -38 8 -83 10 -100 2 -16 7 -60 10 -96 6 -54 13
-73 35 -98 l28 -30 18 27 c19 28 23 83 11 142 -3 19 -13 71 -21 115 -8 44 -27
141 -41 215 -15 74 -28 146 -31 160 -41 226 -51 270 -66 270 -7 0 -8 -22 -4
-67z"/>
<path d="M3896 6408 c-4 -12 -20 -91 -32 -158 -2 -14 -7 -36 -9 -50 -3 -14 -8
-38 -11 -55 -3 -16 -11 -61 -19 -100 -13 -68 -50 -265 -59 -315 -2 -14 -10
-55 -16 -91 -11 -58 -11 -69 5 -102 9 -20 23 -37 29 -37 25 0 54 57 60 116 4
32 11 102 16 154 5 52 12 120 14 150 3 30 9 102 15 160 11 115 20 207 26 282
3 44 -10 77 -19 46z"/>
<path d="M3519 6372 c-1 -15 -2 -49 -4 -77 -4 -58 -12 -246 -30 -647 -2 -65 0
-81 19 -107 11 -17 24 -31 27 -31 3 0 16 14 29 32 19 26 24 44 23 98 0 73 -16
448 -28 645 -2 28 -4 62 -4 76 -1 38 -31 47 -32 11z"/>
<path d="M2811 6281 c-11 -7 -9 -29 15 -127 15 -66 29 -123 30 -129 12 -53
146 -593 149 -603 4 -10 12 -9 36 5 17 10 35 23 40 29 8 10 -48 199 -176 594
-26 80 -53 166 -61 193 -8 26 -16 47 -17 47 -1 0 -8 -4 -16 -9z"/>
<path d="M4227 6238 c-9 -24 -20 -59 -26 -78 -5 -19 -37 -114 -71 -210 -88
-252 -140 -414 -140 -437 0 -11 7 -36 15 -55 12 -29 18 -35 38 -31 22 4 27 16
51 112 15 58 28 113 30 121 2 8 6 26 9 40 24 90 137 561 137 570 0 27 -29 5
-43 -32z"/>
<path d="M4559 6098 c-18 -35 -54 -106 -82 -158 -27 -52 -94 -184 -148 -292
-90 -179 -99 -202 -99 -252 0 -55 1 -56 29 -56 36 0 41 7 79 105 17 44 85 217
151 385 67 167 121 310 121 317 0 30 -22 9 -51 -49z"/>
<path d="M2493 6103 c-7 -3 -13 -10 -13 -18 0 -10 55 -153 105 -270 7 -16 52
-130 101 -252 49 -123 92 -223 95 -223 4 0 19 10 34 22 24 19 27 26 22 62 -3
24 -53 136 -121 271 -175 349 -210 412 -223 408z"/>
<path d="M4850 5897 c-269 -376 -410 -584 -409 -602 4 -57 14 -79 38 -79 20 0
45 37 182 269 87 149 162 277 166 285 4 8 37 66 74 127 49 83 64 115 55 122
-9 7 -38 -27 -106 -122z"/>
<path d="M2109 6003 c11 -21 332 -569 367 -628 14 -22 32 -55 41 -72 11 -23
30 -38 59 -49 50 -19 74 -14 74 16 0 31 -511 749 -533 750 -14 0 -16 -4 -8
-17z"/>
<path d="M1853 5749 c-9 -9 6 -34 65 -108 320 -405 427 -533 449 -542 39 -15
81 -11 92 9 10 19 14 15 -244 287 -332 350 -349 367 -362 354z"/>
<path d="M5172 5731 c-13 -14 -56 -59 -95 -101 -365 -383 -467 -493 -467 -501
0 -4 14 -13 32 -22 51 -25 75 -9 193 134 11 13 83 105 160 204 76 99 150 194
165 211 14 17 33 41 43 53 34 42 6 63 -31 22z"/>
<path d="M5340 5407 c-36 -28 -153 -121 -260 -205 -107 -85 -212 -168 -234
-185 -21 -18 -42 -33 -47 -35 -29 -11 19 -62 58 -62 32 0 80 37 199 152 94 91
364 389 352 388 -2 -1 -32 -24 -68 -53z"/>
<path d="M1653 5434 c-4 -11 11 -32 49 -67 30 -29 120 -114 199 -189 293 -278
267 -258 327 -258 50 0 52 1 52 28 -1 23 -29 49 -206 187 -113 88 -217 170
-232 182 -126 101 -168 133 -175 133 -4 0 -10 -7 -14 -16z"/>
<path d="M3400 5362 c-53 -3 -184 -19 -220 -27 -14 -3 -35 -8 -48 -11 -160
-33 -387 -142 -517 -247 -71 -57 -196 -189 -192 -202 3 -9 393 -234 407 -234
3 0 32 24 65 53 99 91 203 145 275 145 79 0 188 -57 304 -160 41 -37 62 -50
71 -43 7 5 43 35 80 66 37 31 100 74 139 95 63 33 79 38 141 38 95 -1 155 -33
288 -155 22 -19 42 -35 46 -35 3 0 101 51 216 114 l209 115 -85 79 c-299 280
-741 434 -1179 409z"/>
<path d="M5565 5143 c-591 -344 -583 -338 -595 -381 -5 -20 -10 -42 -10 -49 0
-15 36 -27 52 -17 70 41 658 469 655 477 -7 21 -23 16 -102 -30z"/>
<path d="M1460 5151 c89 -79 278 -228 414 -325 131 -94 153 -106 190 -106 51
0 69 11 64 40 -2 18 -70 62 -338 217 -184 107 -342 197 -350 200 -8 3 1 -8 20
-26z"/>
<path d="M985 4720 c-60 -9 -101 -35 -190 -120 -44 -42 -90 -82 -103 -89 -41
-22 -78 -4 -169 85 -95 90 -136 116 -188 116 -38 0 -105 -20 -105 -31 0 -4 28
-28 63 -53 34 -25 98 -78 142 -117 175 -157 271 -161 417 -18 159 155 164 155
318 7 149 -144 262 -145 406 -5 157 154 162 154 321 -2 81 -79 136 -106 206
-101 75 6 118 31 215 124 92 89 132 108 176 84 13 -6 60 -47 105 -90 95 -91
147 -120 217 -120 63 0 133 39 211 118 139 139 155 139 311 -15 75 -74 131
-103 195 -103 67 0 123 30 203 108 151 147 169 148 311 5 75 -75 126 -104 192
-110 77 -7 132 22 240 126 126 120 148 120 278 -7 92 -89 135 -114 210 -120
72 -6 127 24 233 126 47 45 93 85 103 88 45 14 84 -6 170 -90 95 -92 138 -117
209 -124 66 -6 141 31 220 108 145 142 157 142 286 18 95 -91 142 -119 213
-126 86 -8 126 15 327 193 56 49 101 94 99 100 -2 5 -22 15 -44 21 -73 21
-113 3 -224 -102 -102 -96 -139 -115 -181 -93 -13 6 -60 47 -105 90 -175 167
-258 166 -440 -3 -50 -47 -103 -88 -116 -92 -40 -10 -71 8 -162 94 -101 95
-148 121 -218 122 -70 2 -118 -25 -220 -121 -85 -80 -112 -99 -134 -95 -7 1
-22 2 -33 3 -11 0 -57 36 -103 79 -108 103 -162 134 -230 135 -71 1 -118 -24
-201 -106 -143 -143 -180 -142 -324 1 -150 149 -245 144 -419 -20 -49 -47
-101 -88 -115 -91 -42 -11 -76 8 -163 91 -94 91 -154 124 -224 124 -68 -1
-115 -28 -214 -121 -85 -80 -112 -99 -134 -95 -7 1 -22 2 -32 3 -11 0 -60 39
-110 85 -182 170 -271 173 -441 11 -90 -85 -135 -110 -175 -95 -14 5 -64 46
-112 91 -96 91 -152 121 -223 121 -68 -1 -116 -29 -222 -128 -49 -46 -96 -85
-104 -85 -8 -1 -21 -1 -29 -1 -8 0 -22 0 -29 1 -8 0 -56 39 -106 86 -120 112
-172 138 -255 125z"/>
<path d="M4664 4193 c-8 -8 -14 -16 -14 -17 0 -2 -14 -48 -31 -102 -32 -102
-46 -151 -55 -194 -3 -14 -9 -29 -15 -35 -5 -5 -9 -16 -9 -24 0 -9 -9 -45 -19
-81 -11 -36 -27 -94 -37 -130 -24 -89 -34 -107 -96 -172 -70 -74 -147 -110
-241 -111 -61 -1 -70 2 -98 29 -40 37 -54 73 -37 90 7 7 35 15 61 19 60 7 151
38 191 66 135 93 124 277 -18 313 -162 41 -322 -90 -360 -293 -34 -187 66
-331 232 -333 106 -1 188 34 272 116 l50 49 0 -29 c1 -43 31 -96 66 -116 76
-44 179 -13 254 78 l45 55 6 -28 c16 -80 66 -124 141 -125 75 -1 148 51 226
160 l31 44 7 -29 c10 -45 65 -120 104 -142 121 -68 291 -30 403 88 60 64 96
118 168 257 80 155 77 151 133 130 39 -15 65 -22 115 -30 38 -7 29 -21 -100
-160 -216 -234 -227 -251 -172 -280 22 -11 33 -12 63 -1 46 16 105 11 165 -15
63 -27 148 -27 200 1 41 21 104 81 144 138 17 24 26 29 32 20 4 -7 6 -16 3
-21 -8 -12 31 -80 63 -110 37 -35 78 -50 135 -49 59 1 103 19 148 60 30 27 35
29 38 14 2 -10 16 -30 30 -45 20 -22 35 -28 68 -28 24 0 55 5 70 10 41 16 146
129 142 154 -5 34 -36 30 -78 -8 -40 -36 -74 -50 -107 -44 -15 3 -18 12 -16
58 1 30 9 75 18 100 8 25 17 52 20 61 2 9 20 63 40 120 48 133 52 154 30 163
-32 12 -69 -17 -97 -77 -15 -31 -30 -57 -33 -57 -4 0 -4 4 -1 9 8 13 -49 98
-80 118 -39 25 -120 32 -169 14 -38 -14 -90 -47 -127 -81 -25 -23 -77 -124
-94 -181 -20 -66 -94 -168 -153 -211 -40 -28 -55 -33 -110 -35 -35 -1 -82 4
-105 11 -50 15 -53 16 -66 16 -20 0 -9 16 58 86 37 40 103 111 147 160 44 48
97 106 118 128 20 22 37 45 37 51 0 12 -52 45 -71 45 -7 0 -24 -10 -37 -22
-34 -33 -114 -28 -228 12 -49 17 -95 32 -102 33 -15 2 -19 -4 -115 -203 -62
-127 -86 -165 -129 -208 -69 -68 -83 -77 -153 -100 -62 -21 -138 -22 -175 -2
-38 20 -75 100 -52 113 4 3 30 8 57 11 148 19 252 86 280 181 17 54 12 96 -14
138 -28 46 -75 67 -150 67 -132 0 -237 -93 -292 -259 -28 -88 -123 -221 -177
-250 -36 -19 -90 -14 -103 10 -10 20 -8 90 5 159 6 31 82 307 100 364 8 23 26
84 41 136 15 52 33 111 40 130 17 48 8 66 -35 66 -19 -1 -42 -5 -51 -11 -13
-8 -33 -58 -54 -135 -1 -3 -6 -21 -12 -40 -26 -81 -95 -318 -104 -355 -20 -86
-43 -142 -79 -195 -71 -103 -115 -140 -172 -140 -33 0 -40 4 -49 28 -10 24 -8
93 5 147 13 59 71 270 111 400 15 50 34 115 42 145 8 30 17 62 20 70 2 8 4 17
5 20 0 3 4 13 10 23 14 27 -7 47 -49 45 -19 -1 -41 -8 -49 -15z m-431 -471
c42 -37 6 -118 -67 -152 -53 -24 -134 -43 -153 -35 -33 12 16 128 72 171 57
43 109 49 148 16z m1327 3 c22 -26 18 -74 -9 -109 -30 -38 -114 -76 -176 -79
-35 -2 -40 1 -43 21 -5 37 43 124 84 152 55 38 120 44 144 15z m1278 -7 c77
-64 55 -256 -40 -344 -83 -78 -181 -57 -207 45 -49 188 126 399 247 299z"/>
<path d="M280 4165 c-8 -10 -46 -122 -55 -160 -1 -5 -7 -23 -13 -38 -7 -16
-12 -33 -12 -39 0 -12 -17 -70 -31 -103 -7 -17 -24 -76 -35 -120 -6 -25 -77
-252 -84 -270 -26 -64 -51 -177 -42 -188 8 -9 72 -12 244 -11 342 2 306 -3
327 47 11 24 15 46 10 53 -6 7 -80 10 -219 10 -131 -1 -211 3 -213 9 -4 10 4
38 92 330 41 134 56 185 115 375 15 47 25 92 24 100 -4 18 -94 22 -108 5z"/>
<path d="M3361 4166 c-8 -10 -47 -126 -56 -166 -7 -30 -54 -186 -64 -212 -6
-16 -8 -28 -5 -28 2 0 0 -8 -5 -19 -6 -10 -24 -65 -41 -122 -17 -57 -38 -124
-45 -149 -57 -187 -64 -214 -56 -224 9 -10 403 -13 441 -3 8 2 29 7 45 12 144
38 254 222 216 362 -7 24 -28 56 -53 81 -23 23 -36 42 -29 42 7 0 31 18 52 39
108 112 122 273 30 349 -46 38 -85 45 -254 46 -108 2 -171 -2 -176 -8z m326
-114 c76 -42 50 -188 -43 -239 -34 -19 -57 -23 -153 -24 -62 0 -115 1 -118 4
-5 5 8 55 43 165 8 23 14 48 14 55 0 7 7 23 16 35 15 21 21 22 117 19 56 -2
112 -9 124 -15z m-74 -385 c118 -56 54 -276 -88 -303 -22 -4 -95 -8 -162 -8
-95 -1 -123 2 -123 12 0 7 19 78 42 158 48 169 37 160 198 158 68 -1 111 -7
133 -17z"/>
<path d="M2525 3970 c-32 -14 -71 -52 -90 -90 -26 -50 -29 -145 -5 -198 l19
-42 -53 -53 c-81 -82 -104 -169 -68 -257 47 -115 216 -142 358 -58 l33 20 26
-26 c26 -26 84 -39 118 -27 15 6 12 13 -27 56 -25 28 -45 54 -46 58 0 5 9 22
20 37 11 16 27 45 35 64 15 35 15 36 -14 51 -39 20 -55 12 -76 -36 -12 -25
-25 -39 -37 -39 -10 0 -18 3 -18 8 0 4 -17 25 -38 47 -68 72 -98 125 -72 125
18 0 117 77 138 107 62 88 35 211 -55 249 -36 15 -117 18 -148 4z m131 -106
c37 -45 7 -114 -70 -159 -24 -14 -46 -25 -50 -25 -12 0 -36 67 -36 100 0 96
101 151 156 84z m-77 -414 c38 -46 68 -87 65 -92 -9 -15 -59 -36 -89 -38 -66
-5 -87 1 -116 29 -23 24 -29 38 -29 73 0 36 7 52 36 86 24 29 40 40 49 34 8
-4 46 -45 84 -92z"/>
<path d="M1563 3848 c-16 -27 -82 -168 -78 -168 2 0 -16 -34 -40 -75 -25 -42
-45 -77 -45 -80 0 -7 -44 -70 -84 -119 -47 -57 -101 -87 -133 -75 -36 13 -30
83 17 233 23 69 41 128 40 131 0 3 11 29 24 59 28 62 22 78 -28 81 -48 2 -58
-11 -105 -131 -82 -206 -158 -331 -224 -363 -35 -17 -44 -18 -71 -7 -58 23
-53 87 25 319 28 82 49 156 47 164 -3 18 -45 22 -84 9 -24 -7 -46 -55 -93
-206 -58 -187 -66 -265 -34 -326 26 -51 72 -78 130 -75 72 2 151 55 202 136
l26 41 0 -56 c1 -147 143 -166 266 -35 52 55 147 206 213 338 27 54 55 97 63
97 8 0 24 -5 35 -11 12 -7 53 -19 91 -28 l69 -16 -23 -26 c-13 -14 -40 -44
-59 -65 -19 -22 -86 -95 -147 -163 -62 -68 -113 -127 -113 -131 0 -4 9 -19 20
-33 21 -26 33 -27 84 -8 34 14 79 8 159 -19 116 -40 217 -14 297 77 43 49 50
77 23 91 -22 11 -43 5 -63 -18 -27 -32 -92 -60 -140 -60 -47 1 -167 23 -177
34 -3 3 12 25 33 48 22 24 55 61 74 82 19 22 64 71 100 109 165 175 170 182
128 211 -30 21 -47 20 -75 -6 -13 -12 -38 -22 -58 -23 -51 -3 -153 20 -220 50
-67 29 -62 28 -72 13z"/>
<path d="M970 2870 c-51 -14 -95 -44 -165 -110 -92 -87 -125 -105 -169 -90
-17 5 -70 44 -116 86 -106 95 -136 114 -180 114 -30 0 -100 -31 -100 -44 0 -3
35 -32 78 -64 42 -33 104 -85 137 -116 33 -31 84 -68 113 -82 103 -52 173 -29
310 99 51 48 104 90 117 93 45 11 78 -6 159 -85 97 -93 132 -118 177 -127 95
-18 151 7 271 122 127 122 149 123 269 6 99 -96 152 -128 219 -131 72 -3 121
23 229 123 52 47 105 89 118 92 42 11 71 -5 163 -91 106 -99 153 -126 219
-127 67 0 121 31 214 121 43 42 88 81 100 88 54 30 104 5 204 -99 101 -105
201 -135 294 -88 23 12 82 60 130 106 131 123 147 123 278 0 101 -96 155 -128
216 -128 68 0 127 33 225 126 132 126 146 126 280 0 100 -94 160 -127 226
-126 63 2 115 33 215 128 127 120 148 121 255 18 126 -120 167 -144 248 -144
64 1 117 31 216 124 133 125 146 125 270 6 101 -96 162 -131 231 -132 82 0
125 28 332 215 l77 70 -31 19 c-78 48 -110 35 -251 -98 -77 -73 -106 -94 -127
-94 -32 0 -66 25 -160 118 -81 80 -129 105 -201 106 -74 0 -121 -26 -222 -124
-102 -98 -140 -114 -190 -79 -18 13 -61 51 -95 85 -87 88 -143 119 -213 118
-72 -1 -120 -26 -201 -106 -148 -148 -165 -149 -297 -22 -180 174 -265 175
-437 9 -92 -89 -125 -109 -165 -100 -16 4 -65 41 -116 91 -95 91 -167 134
-224 134 -55 0 -132 -44 -208 -119 -143 -140 -157 -141 -283 -20 -112 107
-158 134 -229 133 -72 0 -119 -26 -206 -110 -109 -105 -127 -116 -168 -108
-27 5 -57 26 -116 85 -106 103 -158 134 -230 133 -74 0 -124 -28 -219 -120
-42 -42 -89 -82 -104 -90 -44 -23 -84 -4 -178 87 -102 98 -145 122 -219 123
-74 0 -120 -26 -223 -123 -93 -87 -114 -101 -143 -96 -10 2 -22 4 -26 4 -4 1
-48 39 -98 86 -50 47 -110 95 -132 106 -44 22 -108 31 -148 19z"/>
<path d="M2346 2540 l-77 -81 32 -42 c65 -85 266 -274 362 -341 139 -97 282
-165 442 -212 70 -21 58 -18 115 -28 25 -5 54 -10 65 -12 103 -20 379 -22 479
-3 23 4 59 10 81 13 73 12 224 56 307 91 233 98 440 260 606 473 l34 42 -72
89 c-53 65 -77 88 -89 83 -9 -3 -58 -30 -110 -60 -249 -144 -288 -143 -540 11
-53 31 -99 57 -103 57 -5 0 -45 -32 -90 -70 -90 -78 -187 -130 -243 -130 -69
0 -151 46 -312 176 l-33 26 -117 -69 c-246 -145 -288 -144 -553 16 -47 28 -90
51 -96 51 -6 0 -46 -36 -88 -80z"/>
<path d="M5260 2564 c-7 -19 -10 -37 -8 -38 1 -2 93 -40 203 -84 110 -44 234
-95 275 -112 89 -37 86 -33 -50 57 -129 86 -253 154 -342 187 l-67 25 -11 -35z"/>
<path d="M1728 2566 c-36 -13 -99 -41 -140 -63 -82 -44 -299 -185 -294 -190 3
-3 525 205 535 214 8 6 -13 56 -24 59 -5 2 -40 -8 -77 -20z"/>
<path d="M2000 2407 c-103 -45 -222 -127 -371 -254 -69 -59 -145 -125 -170
-145 -25 -22 87 39 261 140 168 98 328 191 357 207 51 29 51 29 37 57 -8 15
-20 28 -27 28 -6 0 -46 -15 -87 -33z"/>
<path d="M4940 2399 c0 -7 548 -331 675 -399 l60 -32 -45 42 c-220 203 -391
324 -526 371 -57 20 -164 32 -164 18z"/>
<path d="M2165 2234 c-171 -157 -425 -418 -520 -534 -20 -25 -20 -25 0 -10 11
8 47 37 80 63 73 59 43 36 322 255 128 101 235 188 239 193 3 5 -2 16 -10 25
-9 8 -21 24 -26 35 -16 28 -29 24 -85 -27z"/>
<path d="M4805 2221 c-3 -11 -4 -25 0 -30 3 -6 152 -125 331 -266 247 -195
329 -254 338 -245 12 12 -57 82 -343 350 -74 69 -146 136 -161 150 -49 46 -59
51 -108 57 -44 4 -51 3 -57 -16z"/>
<path d="M2335 2048 c-34 -43 -93 -119 -273 -347 -169 -214 -163 -206 -143
-215 16 -7 27 -1 53 26 18 20 107 113 198 209 91 95 174 183 185 194 76 80 81
89 77 138 -4 43 -6 47 -31 47 -21 0 -36 -12 -66 -52z"/>
<path d="M4668 2088 c-21 -7 -28 -16 -28 -36 1 -46 35 -105 91 -156 30 -27
104 -97 164 -155 93 -90 201 -187 279 -250 11 -9 -32 49 -94 129 -194 248
-294 375 -300 380 -3 3 -21 26 -40 52 -19 26 -37 47 -40 47 -3 0 -17 -5 -32
-11z"/>
<path d="M2552 1911 c-23 -29 -63 -92 -88 -139 -26 -48 -75 -134 -109 -192
-139 -233 -193 -339 -181 -349 9 -8 19 -2 34 19 33 44 437 613 445 627 5 8 -6
27 -26 49 l-34 37 -41 -52z"/>
<path d="M4428 1874 c49 -73 398 -565 409 -579 5 -5 19 -25 32 -43 18 -26 26
-31 37 -21 12 10 11 16 -5 43 -10 17 -28 48 -39 68 -12 20 -32 55 -46 77 -15
22 -26 42 -26 45 0 3 -164 286 -190 326 -5 8 -23 39 -40 67 -17 29 -34 55 -38
57 -4 3 -36 8 -71 12 l-64 7 41 -59z"/>
<path d="M4236 1794 c-16 -42 1 -87 133 -346 234 -460 265 -518 275 -508 7 7
-104 302 -179 475 -7 17 -31 77 -55 135 -23 58 -48 119 -56 137 -8 17 -14 36
-14 41 0 11 -79 82 -91 82 -4 0 -10 -7 -13 -16z"/>
<path d="M2782 1780 c-31 -33 -71 -124 -217 -488 -81 -202 -134 -347 -129
-352 5 -5 50 70 108 183 54 106 152 296 217 424 112 218 118 233 100 243 -30
16 -58 12 -79 -10z"/>
<path d="M3005 1728 c-27 -84 -225 -923 -221 -935 4 -9 8 -14 10 -12 2 2 24
65 49 139 25 74 91 267 146 428 60 177 98 302 95 317 -10 55 -23 75 -49 75
-14 0 -27 -6 -30 -12z"/>
<path d="M4006 1711 c-9 -16 -16 -38 -16 -48 0 -10 57 -185 126 -388 69 -204
134 -395 143 -425 10 -30 25 -56 33 -58 10 -2 -16 118 -99 455 -62 252 -117
465 -121 473 -17 28 -50 24 -66 -9z"/>
<path d="M3267 1652 c-16 -16 -29 -44 -32 -63 -7 -60 -25 -232 -31 -299 -3
-36 -7 -78 -8 -95 -2 -16 -7 -66 -10 -110 -4 -44 -9 -93 -11 -110 -2 -16 -7
-66 -10 -110 -4 -44 -9 -88 -11 -97 -1 -10 3 -18 10 -18 13 0 52 183 137 645
40 219 39 213 17 252 -11 18 -21 33 -22 33 -1 0 -14 -13 -29 -28z"/>
<path d="M3756 1639 c-9 -18 -14 -43 -11 -58 26 -152 35 -203 40 -223 2 -13 7
-36 10 -53 3 -16 14 -75 25 -130 10 -55 28 -149 39 -210 38 -202 42 -215 57
-215 8 0 13 3 10 8 -2 4 -7 47 -11 95 -3 48 -8 101 -10 117 -2 17 -6 65 -10
108 -3 42 -8 88 -10 102 -2 14 -7 59 -10 100 -8 94 -13 143 -20 200 -3 25 -7
68 -10 95 -4 37 -12 56 -31 73 -33 29 -40 28 -58 -9z"/>
<path d="M3510 1623 c-21 -27 -22 -33 -15 -208 7 -203 11 -286 21 -465 3 -69
7 -140 8 -159 1 -32 25 -58 27 -29 0 7 2 20 4 29 1 9 6 90 10 180 4 90 9 191
10 224 18 366 18 384 -7 421 -13 18 -26 34 -30 34 -4 0 -16 -12 -28 -27z"/>
</g>
</svg>
